<svg xmlns="http://www.w3.org/2000/svg" width="159" height="32" viewBox="0 0 159 32"><title>logo10</title><path fill="#e21b2a" d="M24.356 11.467c2.133 0 3.911-1.778 3.911-3.911s-1.778-3.911-3.911-3.911-3.911 1.778-3.911 3.911c0.089 2.222 1.778 3.911 3.911 3.911zM24.356 14.489c-1.867 0-3.556-0.8-4.8-1.956 0 0 0 0-0.089-0.089-1.244-1.244-1.956-2.933-1.956-4.8 0-1.956 0.8-3.644 2.044-4.889-0.356-0.978-0.889-1.867-1.511-2.667-0.8 0.711-1.511 1.422-2.044 2.311-0.978 1.511-1.511 3.289-1.511 5.244 0 1.867-0.8 3.556-1.956 4.8 0 0 0 0-0.089 0.089-1.244 1.244-2.933 1.956-4.8 1.956-1.956 0-3.644-0.8-4.889-2.044-0.978 0.356-1.867 0.889-2.667 1.511 0.711 0.8 1.422 1.511 2.311 2.044 1.511 0.978 3.289 1.511 5.244 1.511 6.222 0 9.156 7.556 4.8 11.822 0.356 0.978 0.889 1.867 1.511 2.667 2.222-1.867 3.556-4.622 3.556-7.644 0-3.822 3.111-6.933 6.933-6.933 1.956 0 3.644 0.8 4.889 2.044 0.978-0.356 1.867-0.889 2.667-1.511-1.867-2.133-4.622-3.467-7.644-3.467zM16 19.111c-0.8-1.244-1.867-2.311-3.111-3.111 0.356-0.267 0.711-0.533 1.067-0.8 0.444-0.356 0.889-0.8 1.244-1.244 0.267-0.356 0.533-0.711 0.8-1.067 0.267 0.356 0.533 0.711 0.8 1.067 0.356 0.444 0.8 0.889 1.244 1.244 0.356 0.267 0.711 0.533 1.067 0.8-1.244 0.8-2.311 1.867-3.111 3.111zM24.356 20.533c-2.133 0-3.911 1.778-3.911 3.911s1.778 3.911 3.911 3.911 3.911-1.778 3.911-3.911c0-2.222-1.689-3.911-3.911-3.911zM7.644 20.533c-2.133 0-3.911 1.778-3.911 3.911s1.778 3.911 3.911 3.911 3.911-1.778 3.911-3.911c-0.089-2.222-1.778-3.911-3.911-3.911zM7.644 11.467c2.133 0 3.911-1.778 3.911-3.911s-1.778-3.911-3.911-3.911-3.911 1.778-3.911 3.911c0 2.222 1.689 3.911 3.911 3.911z"></path><path fill="#2a6a76" d="M56.978 7.556h-2.222c-0.267 0-0.444 0.178-0.444 0.444v6.667h-7.289v-6.667c0-0.267-0.178-0.444-0.444-0.444h-2.222c-0.267 0-0.444 0.178-0.444 0.444v15.733c0 0.267 0.178 0.444 0.444 0.444h2.222c0.267 0 0.444-0.178 0.444-0.444v-6.133h7.289v6.133c0 0.267 0.178 0.444 0.444 0.444h2.222c0.267 0 0.444-0.178 0.444-0.444v-15.733c0-0.267-0.178-0.444-0.444-0.444zM78.4 7.556h-2.222c-0.267 0-0.444 0.178-0.444 0.444v9.156c0 2.756-1.156 4.178-3.556 4.178s-3.556-1.422-3.556-4.178v-9.156c0-0.267-0.178-0.444-0.444-0.444h-2.222c-0.267 0-0.444 0.178-0.444 0.444v9.422c0 2.222 0.622 3.911 1.778 5.156s2.756 1.867 4.889 1.867 3.733-0.622 4.889-1.867 1.778-2.933 1.778-5.156v-9.422c0-0.267-0.178-0.444-0.444-0.444zM103.911 7.556h-2.578c-0.178 0-0.356 0.089-0.444 0.267l-5.156 9.067h-0.089l-5.156-8.978c-0.089-0.178-0.267-0.267-0.444-0.267h-2.578c-0.267 0-0.444 0.178-0.444 0.444v15.733c0 0.267 0.178 0.444 0.444 0.444h2.222c0.267 0 0.444-0.178 0.444-0.444v-10.933l4.267 7.289c0.089 0.178 0.267 0.267 0.533 0.267h1.689c0.178 0 0.356-0.089 0.444-0.267l4.267-7.289h0.089v10.844c0 0.267 0.178 0.444 0.444 0.444h2.222c0.267 0 0.444-0.178 0.444-0.444v-15.733c-0.178-0.267-0.267-0.444-0.622-0.444zM120.978 7.911c-0.089-0.178-0.267-0.356-0.444-0.356h-2.578c-0.267 0-0.356 0.089-0.444 0.356l-6.133 15.822c0 0.089-0.089 0.178-0.089 0.267 0 0.178 0.089 0.267 0.356 0.267h2.4c0.267 0 0.356-0.089 0.444-0.356l1.067-2.933h7.378l1.067 2.933c0.089 0.178 0.178 0.356 0.444 0.356h2.4c0.267 0 0.356-0.089 0.356-0.267 0-0.089 0-0.178-0.089-0.178l-6.133-15.911zM116.533 18.044l2.578-6.933h0.089l2.578 6.933h-5.244zM147.644 7.556h-2.222c-0.267 0-0.444 0.178-0.444 0.444v10.844h-0.089l-7.733-11.022c-0.089-0.178-0.267-0.267-0.533-0.267h-2.222c-0.267 0-0.444 0.178-0.444 0.444v15.733c0 0.267 0.178 0.444 0.444 0.444h2.222c0.267 0 0.444-0.178 0.444-0.444v-10.844l7.822 11.022c0.089 0.178 0.267 0.267 0.444 0.267h2.222c0.267 0 0.444-0.178 0.444-0.444v-15.733c0.089-0.267-0.089-0.444-0.356-0.444zM159.111 7.556h-2.222c-0.267 0-0.444 0.178-0.444 0.444v15.733c0 0.267 0.178 0.444 0.444 0.444h2.222c0.267 0 0.444-0.178 0.444-0.444v-15.733c-0.089-0.267-0.178-0.444-0.444-0.444z"></path></svg>